<svg xmlns="http://www.w3.org/2000/svg" xmlns:xlink="http://www.w3.org/1999/xlink" width="200" zoomAndPan="magnify" viewBox="0 0 150 41.25" height="55" preserveAspectRatio="xMidYMid meet" version="1.0"><defs><g/></defs><g fill="#ffffff" fill-opacity="1"><g transform="translate(3.804985, 35.546279)"><g><path d="M 7.53125 -17.203125 L 5.375 -17.203125 L 5.375 -26.34375 C 5.375 -26.476562 5.367188 -26.625 5.359375 -26.78125 C 5.347656 -26.9375 5.304688 -27.078125 5.234375 -27.203125 C 5.171875 -27.335938 5.066406 -27.445312 4.921875 -27.53125 C 4.773438 -27.625 4.566406 -27.671875 4.296875 -27.671875 C 4.023438 -27.671875 3.816406 -27.625 3.671875 -27.53125 C 3.523438 -27.445312 3.421875 -27.335938 3.359375 -27.203125 C 3.296875 -27.078125 3.253906 -26.9375 3.234375 -26.78125 C 3.222656 -26.625 3.21875 -26.476562 3.21875 -26.34375 L 3.21875 -2.6875 C 3.21875 -2.550781 3.222656 -2.390625 3.234375 -2.203125 C 3.253906 -2.023438 3.296875 -1.847656 3.359375 -1.671875 C 3.421875 -1.503906 3.523438 -1.363281 3.671875 -1.25 C 3.816406 -1.132812 4.023438 -1.078125 4.296875 -1.078125 C 4.566406 -1.078125 4.773438 -1.132812 4.921875 -1.25 C 5.066406 -1.363281 5.171875 -1.503906 5.234375 -1.671875 C 5.304688 -1.847656 5.347656 -2.023438 5.359375 -2.203125 C 5.367188 -2.390625 5.375 -2.550781 5.375 -2.6875 L 5.375 -13.4375 L 4.84375 -13.4375 L 4.84375 -15.046875 L 7.53125 -15.046875 L 7.53125 -2.6875 C 7.53125 -2.550781 7.507812 -2.304688 7.46875 -1.953125 C 7.4375 -1.597656 7.320312 -1.234375 7.125 -0.859375 C 6.925781 -0.492188 6.609375 -0.171875 6.171875 0.109375 C 5.734375 0.390625 5.109375 0.53125 4.296875 0.53125 C 3.492188 0.53125 2.875 0.390625 2.4375 0.109375 C 2 -0.171875 1.675781 -0.492188 1.46875 -0.859375 C 1.269531 -1.234375 1.15625 -1.597656 1.125 -1.953125 C 1.09375 -2.304688 1.078125 -2.550781 1.078125 -2.6875 L 1.078125 -26.34375 C 1.078125 -26.4375 1.082031 -26.570312 1.09375 -26.75 C 1.101562 -26.925781 1.132812 -27.125 1.1875 -27.34375 C 1.25 -27.5625 1.347656 -27.785156 1.484375 -28.015625 C 1.617188 -28.242188 1.800781 -28.453125 2.03125 -28.640625 C 2.269531 -28.828125 2.570312 -28.976562 2.9375 -29.09375 C 3.3125 -29.21875 3.765625 -29.28125 4.296875 -29.28125 C 4.835938 -29.28125 5.289062 -29.21875 5.65625 -29.09375 C 6.03125 -28.976562 6.332031 -28.828125 6.5625 -28.640625 C 6.800781 -28.453125 6.988281 -28.242188 7.125 -28.015625 C 7.257812 -27.785156 7.351562 -27.5625 7.40625 -27.34375 C 7.46875 -27.125 7.503906 -26.925781 7.515625 -26.75 C 7.523438 -26.570312 7.53125 -26.4375 7.53125 -26.34375 Z M 7.53125 -17.203125 "/></g></g></g><g fill="#ffffff" fill-opacity="1"><g transform="translate(16.055327, 35.546279)"><g><path d="M 6.984375 0 L 4.84375 0 L 4.5625 -6.984375 L 2.96875 -6.984375 L 2.6875 0 L 0.53125 0 L 2.15625 -29.03125 L 5.375 -29.03125 Z M 4.296875 -15.046875 L 3.765625 -27.953125 L 3.21875 -15.046875 L 2.96875 -8.609375 L 4.5625 -8.609375 Z M 4.296875 -15.046875 "/></g></g></g><g fill="#ffffff" fill-opacity="1"><g transform="translate(27.230334, 35.546279)"><g><path d="M 3.21875 -2.6875 C 3.21875 -2.550781 3.222656 -2.390625 3.234375 -2.203125 C 3.253906 -2.023438 3.296875 -1.847656 3.359375 -1.671875 C 3.421875 -1.503906 3.523438 -1.363281 3.671875 -1.25 C 3.816406 -1.132812 4.023438 -1.078125 4.296875 -1.078125 C 4.566406 -1.078125 4.773438 -1.132812 4.921875 -1.25 C 5.066406 -1.363281 5.171875 -1.503906 5.234375 -1.671875 C 5.304688 -1.847656 5.347656 -2.023438 5.359375 -2.203125 C 5.367188 -2.390625 5.375 -2.550781 5.375 -2.6875 L 5.375 -29.03125 L 7.53125 -29.03125 L 7.53125 -2.6875 C 7.53125 -2.550781 7.507812 -2.304688 7.46875 -1.953125 C 7.4375 -1.597656 7.320312 -1.234375 7.125 -0.859375 C 6.925781 -0.492188 6.609375 -0.171875 6.171875 0.109375 C 5.734375 0.390625 5.109375 0.53125 4.296875 0.53125 C 3.492188 0.53125 2.875 0.390625 2.4375 0.109375 C 2 -0.171875 1.675781 -0.492188 1.46875 -0.859375 C 1.269531 -1.234375 1.15625 -1.597656 1.125 -1.953125 C 1.09375 -2.304688 1.078125 -2.550781 1.078125 -2.6875 L 1.078125 -29.03125 L 3.21875 -29.03125 Z M 3.21875 -2.6875 "/></g></g></g><g fill="#ffffff" fill-opacity="1"><g transform="translate(39.480677, 35.546279)"><g><path d="M 7.53125 -17.203125 C 7.53125 -16.398438 7.394531 -15.835938 7.125 -15.515625 C 6.851562 -15.203125 6.445312 -15.046875 5.90625 -15.046875 C 6.175781 -15.046875 6.410156 -14.984375 6.609375 -14.859375 C 6.816406 -14.742188 6.988281 -14.582031 7.125 -14.375 C 7.257812 -14.175781 7.359375 -13.945312 7.421875 -13.6875 C 7.492188 -13.4375 7.53125 -13.175781 7.53125 -12.90625 L 7.53125 0 L 5.375 0 L 5.375 -13.4375 C 5.375 -13.707031 5.3125 -13.914062 5.1875 -14.0625 C 5.0625 -14.207031 4.898438 -14.3125 4.703125 -14.375 C 4.503906 -14.445312 4.273438 -14.488281 4.015625 -14.5 C 3.753906 -14.507812 3.488281 -14.515625 3.21875 -14.515625 L 3.21875 0 L 1.078125 0 L 1.078125 -29.03125 L 3.21875 -29.03125 C 3.757812 -29.03125 4.285156 -29.015625 4.796875 -28.984375 C 5.316406 -28.960938 5.773438 -28.863281 6.171875 -28.6875 C 6.578125 -28.519531 6.90625 -28.253906 7.15625 -27.890625 C 7.40625 -27.523438 7.53125 -27.007812 7.53125 -26.34375 Z M 5.375 -26.34375 C 5.375 -26.613281 5.335938 -26.820312 5.265625 -26.96875 C 5.191406 -27.113281 5.070312 -27.21875 4.90625 -27.28125 C 4.738281 -27.351562 4.515625 -27.394531 4.234375 -27.40625 C 3.960938 -27.414062 3.625 -27.421875 3.21875 -27.421875 L 3.21875 -15.59375 C 3.488281 -15.59375 3.753906 -15.597656 4.015625 -15.609375 C 4.273438 -15.617188 4.503906 -15.65625 4.703125 -15.71875 C 4.898438 -15.789062 5.0625 -15.898438 5.1875 -16.046875 C 5.3125 -16.191406 5.375 -16.398438 5.375 -16.671875 Z M 5.375 -26.34375 "/></g></g></g><g fill="#ffffff" fill-opacity="1"><g transform="translate(51.731019, 35.546279)"><g><path d="M 6.984375 0 L 4.84375 0 L 4.5625 -6.984375 L 2.96875 -6.984375 L 2.6875 0 L 0.53125 0 L 2.15625 -29.03125 L 5.375 -29.03125 Z M 4.296875 -15.046875 L 3.765625 -27.953125 L 3.21875 -15.046875 L 2.96875 -8.609375 L 4.5625 -8.609375 Z M 4.296875 -15.046875 "/></g></g></g><g fill="#ffffff" fill-opacity="1"><g transform="translate(62.906023, 35.546279)"><g><path d="M 3.25 -19.890625 L 3.765625 -9.140625 L 4.28125 -19.890625 L 4.84375 -29.03125 L 6.984375 -29.03125 L 4.84375 0 L 2.6875 0 L 0.53125 -29.03125 L 2.6875 -29.03125 Z M 3.25 -19.890625 "/></g></g></g><g fill="#ffffff" fill-opacity="1"><g transform="translate(74.081027, 35.546279)"><g><path d="M 6.984375 0 L 4.84375 0 L 4.5625 -6.984375 L 2.96875 -6.984375 L 2.6875 0 L 0.53125 0 L 2.15625 -29.03125 L 5.375 -29.03125 Z M 4.296875 -15.046875 L 3.765625 -27.953125 L 3.21875 -15.046875 L 2.96875 -8.609375 L 4.5625 -8.609375 Z M 4.296875 -15.046875 "/></g></g></g><g fill="#ffffff" fill-opacity="1"><g transform="translate(85.256032, 35.546279)"><g/></g></g><g fill="#ffffff" fill-opacity="1"><g transform="translate(92.885796, 35.546279)"><g><path d="M 3.21875 -21.5 L 3.765625 -13.984375 L 4.296875 -21.5 L 4.84375 -29.03125 L 6.984375 -29.03125 L 4.84375 -10.21875 L 4.84375 0 L 2.6875 0 L 2.6875 -10.21875 L 0.53125 -29.03125 L 2.6875 -29.03125 Z M 3.21875 -21.5 "/></g></g></g><g fill="#ffffff" fill-opacity="1"><g transform="translate(104.060807, 35.546279)"><g><path d="M 6.984375 0 L 4.84375 0 L 4.5625 -6.984375 L 2.96875 -6.984375 L 2.6875 0 L 0.53125 0 L 2.15625 -29.03125 L 5.375 -29.03125 Z M 4.296875 -15.046875 L 3.765625 -27.953125 L 3.21875 -15.046875 L 2.96875 -8.609375 L 4.5625 -8.609375 Z M 4.296875 -15.046875 "/></g></g></g><g fill="#ffffff" fill-opacity="1"><g transform="translate(115.235811, 35.546279)"><g><path d="M 5.375 -26.34375 C 5.375 -26.613281 5.335938 -26.820312 5.265625 -26.96875 C 5.191406 -27.113281 5.070312 -27.21875 4.90625 -27.28125 C 4.738281 -27.351562 4.515625 -27.394531 4.234375 -27.40625 C 3.960938 -27.414062 3.625 -27.421875 3.21875 -27.421875 L 3.21875 -1.609375 C 3.625 -1.609375 3.960938 -1.613281 4.234375 -1.625 C 4.515625 -1.632812 4.738281 -1.671875 4.90625 -1.734375 C 5.070312 -1.804688 5.191406 -1.914062 5.265625 -2.0625 C 5.335938 -2.207031 5.375 -2.414062 5.375 -2.6875 Z M 7.53125 -2.6875 C 7.53125 -2.019531 7.40625 -1.503906 7.15625 -1.140625 C 6.90625 -0.773438 6.578125 -0.503906 6.171875 -0.328125 C 5.773438 -0.160156 5.316406 -0.0625 4.796875 -0.03125 C 4.285156 -0.0078125 3.757812 0 3.21875 0 L 1.078125 0 L 1.078125 -29.03125 L 3.21875 -29.03125 C 3.757812 -29.03125 4.285156 -29.015625 4.796875 -28.984375 C 5.316406 -28.960938 5.773438 -28.863281 6.171875 -28.6875 C 6.578125 -28.519531 6.90625 -28.253906 7.15625 -27.890625 C 7.40625 -27.523438 7.53125 -27.007812 7.53125 -26.34375 Z M 7.53125 -2.6875 "/></g></g></g><g fill="#ffffff" fill-opacity="1"><g transform="translate(127.48615, 35.546279)"><g><path d="M 6.984375 0 L 4.84375 0 L 4.5625 -6.984375 L 2.96875 -6.984375 L 2.6875 0 L 0.53125 0 L 2.15625 -29.03125 L 5.375 -29.03125 Z M 4.296875 -15.046875 L 3.765625 -27.953125 L 3.21875 -15.046875 L 2.96875 -8.609375 L 4.5625 -8.609375 Z M 4.296875 -15.046875 "/></g></g></g><g fill="#ffffff" fill-opacity="1"><g transform="translate(138.661154, 35.546279)"><g><path d="M 3.25 -19.890625 L 3.765625 -9.140625 L 4.28125 -19.890625 L 4.84375 -29.03125 L 6.984375 -29.03125 L 4.84375 0 L 2.6875 0 L 0.53125 -29.03125 L 2.6875 -29.03125 Z M 3.25 -19.890625 "/></g></g></g></svg>