<svg xmlns="http://www.w3.org/2000/svg" xmlns:xlink="http://www.w3.org/1999/xlink" width="152" zoomAndPan="magnify" viewBox="0 0 114 66" height="88" preserveAspectRatio="xMidYMid meet" version="1.0"><defs><clipPath id="53fa87e49c"><path d="M 0 21.808594 L 114 21.808594 L 114 44.308594 L 0 44.308594 Z M 0 21.808594 " clip-rule="nonzero"/></clipPath></defs><g clip-path="url(#53fa87e49c)"><path fill="#ff0e00" d="M 4.71875 43.957031 L 4.71875 34.863281 L 0.0742188 22.300781 L 4.195312 22.300781 L 6.808594 30.191406 L 9.425781 22.300781 L 13.207031 22.300781 L 8.5625 34.863281 L 8.5625 43.957031 Z M 18.796875 44.269531 C 15.042969 44.269531 12.984375 42.101562 12.984375 38.421875 L 12.984375 27.839844 C 12.984375 24.128906 15.042969 21.992188 18.796875 21.992188 C 22.578125 21.992188 24.640625 24.128906 24.640625 27.839844 L 24.640625 38.421875 C 24.640625 42.101562 22.578125 44.269531 18.796875 44.269531 Z M 18.796875 40.832031 C 20.058594 40.832031 20.796875 40.089844 20.796875 38.605469 L 20.796875 27.652344 C 20.796875 26.136719 20.058594 25.425781 18.796875 25.425781 C 17.535156 25.425781 16.828125 26.136719 16.828125 27.652344 L 16.828125 38.605469 C 16.828125 40.089844 17.535156 40.832031 18.796875 40.832031 Z M 31.835938 44.269531 C 28.054688 44.269531 26.117188 42.101562 26.117188 38.421875 L 26.117188 22.300781 L 29.960938 22.300781 L 29.960938 38.667969 C 29.960938 40.183594 30.636719 40.832031 31.898438 40.832031 C 33.160156 40.832031 33.867188 40.183594 33.867188 38.667969 L 33.867188 22.300781 L 37.558594 22.300781 L 37.558594 38.421875 C 37.558594 42.101562 35.589844 44.269531 31.835938 44.269531 Z M 39.339844 43.957031 L 39.339844 22.300781 L 45.03125 22.300781 C 48.9375 22.300781 50.71875 24.003906 50.71875 27.53125 L 50.71875 28.613281 C 50.71875 30.871094 49.921875 32.292969 48.226562 32.976562 L 48.226562 33.066406 C 50.042969 33.59375 50.75 35.203125 50.75 37.957031 L 50.75 41.144531 C 50.75 42.257812 50.8125 43.09375 51.179688 43.957031 L 47.273438 43.957031 C 47.058594 43.371094 46.9375 43.0625 46.9375 41.113281 L 46.9375 37.707031 C 46.9375 35.667969 46.289062 34.988281 44.507812 34.988281 L 43.183594 34.988281 L 43.183594 43.957031 Z M 43.183594 31.550781 L 44.597656 31.550781 C 46.105469 31.550781 46.875 30.902344 46.875 29.199219 L 46.875 27.933594 C 46.875 26.417969 46.289062 25.734375 44.96875 25.734375 L 43.183594 25.734375 Z M 57.484375 44.269531 C 53.730469 44.269531 51.824219 42.070312 51.824219 38.574219 L 51.824219 37.460938 L 55.453125 37.460938 L 55.453125 38.699219 C 55.453125 40.121094 56.128906 40.894531 57.453125 40.894531 C 58.652344 40.894531 59.453125 40.183594 59.453125 38.667969 C 59.453125 36.84375 58.714844 36.070312 56.160156 34.367188 C 52.898438 32.203125 51.882812 30.375 51.882812 27.625 C 51.882812 24.160156 53.851562 21.992188 57.574219 21.992188 C 61.296875 21.992188 63.144531 24.160156 63.144531 27.683594 L 63.144531 28.457031 L 59.511719 28.457031 L 59.511719 27.59375 C 59.511719 26.136719 58.898438 25.363281 57.605469 25.363281 C 56.40625 25.363281 55.699219 26.078125 55.699219 27.5 C 55.699219 29.109375 56.5 29.914062 59.050781 31.582031 C 62.375 33.75 63.296875 35.605469 63.296875 38.480469 C 63.296875 42.070312 61.265625 44.269531 57.484375 44.269531 Z M 67.5625 43.957031 L 67.5625 25.734375 L 63.5625 25.734375 L 63.5625 22.300781 L 75.4375 22.300781 L 75.4375 25.734375 L 71.40625 25.734375 L 71.40625 43.957031 Z M 81.800781 44.269531 C 78.050781 44.269531 75.988281 42.101562 75.988281 38.421875 L 75.988281 27.839844 C 75.988281 24.128906 78.050781 21.992188 81.800781 21.992188 C 85.585938 21.992188 87.648438 24.128906 87.648438 27.839844 L 87.648438 38.421875 C 87.648438 42.101562 85.585938 44.269531 81.800781 44.269531 Z M 81.800781 40.832031 C 83.0625 40.832031 83.800781 40.089844 83.800781 38.605469 L 83.800781 27.652344 C 83.800781 26.136719 83.0625 25.425781 81.800781 25.425781 C 80.542969 25.425781 79.832031 26.136719 79.832031 27.652344 L 79.832031 38.605469 C 79.832031 40.089844 80.542969 40.832031 81.800781 40.832031 Z M 89.246094 43.957031 L 89.246094 22.300781 L 94.933594 22.300781 C 98.84375 22.300781 100.625 24.003906 100.625 27.53125 L 100.625 28.613281 C 100.625 30.871094 99.828125 32.292969 98.132812 32.976562 L 98.132812 33.066406 C 99.949219 33.59375 100.65625 35.203125 100.65625 37.957031 L 100.65625 41.144531 C 100.65625 42.257812 100.71875 43.09375 101.085938 43.957031 L 97.179688 43.957031 C 96.964844 43.371094 96.84375 43.0625 96.84375 41.113281 L 96.84375 37.707031 C 96.84375 35.667969 96.195312 34.988281 94.414062 34.988281 L 93.089844 34.988281 L 93.089844 43.957031 Z M 93.089844 31.550781 L 94.503906 31.550781 C 96.011719 31.550781 96.78125 30.902344 96.78125 29.199219 L 96.78125 27.933594 C 96.78125 26.417969 96.195312 25.734375 94.875 25.734375 L 93.089844 25.734375 Z M 105.402344 43.957031 L 105.402344 34.863281 L 100.757812 22.300781 L 104.878906 22.300781 L 107.492188 30.191406 L 110.109375 22.300781 L 113.890625 22.300781 L 109.246094 34.863281 L 109.246094 43.957031 Z M 105.402344 43.957031 " fill-opacity="1" fill-rule="nonzero"/></g></svg>